<?xml version="1.0" encoding="UTF-8" standalone="no"?>
<svg width="118px" height="118px" viewBox="0 0 118 118" version="1.1" xmlns="http://www.w3.org/2000/svg" xmlns:xlink="http://www.w3.org/1999/xlink">
    <!-- Generator: Sketch 3.7.2 (28276) - http://www.bohemiancoding.com/sketch -->
    <title>Cannot Find 404</title>
    <desc>Created with Sketch.</desc>
    <defs>
        <path d="M0,3.00560034 C0,1.34565311 1.34552518,0 3.00560034,0 L114.9944,0 C116.654347,0 118,1.34552518 118,3.00560034 L118,114.9944 C118,116.654347 116.654475,118 114.9944,118 L3.00560034,118 C1.34565311,118 0,116.654475 0,114.9944 L0,3.00560034 Z" id="path-1"></path>
        <mask id="mask-2" maskContentUnits="userSpaceOnUse" maskUnits="objectBoundingBox" x="0" y="0" width="118" height="118" fill="white">
            <use xlink:href="#path-1"></use>
        </mask>
    </defs>
    <g id="Feedback-Android-and-Web" stroke="none" stroke-width="1" fill="none" fill-rule="evenodd">
        <g id="Discussions--No-Results" transform="translate(-121.000000, -264.000000)">
            <g id="Cannot-Find-404" transform="translate(121.000000, 264.000000)">
                <use id="Shape" stroke="#E0E0E0" mask="url(#mask-2)" stroke-width="20" stroke-linejoin="round" fill="#F7F7F7" xlink:href="#path-1"></use>
                <g id="noun_390364_cc" transform="translate(0.000000, 9.000000)">
                    <g id="Group">
                        <g transform="translate(24.057184, 31.778359)" id="Shape" fill="#B4B4B4">
                            <polygon points="22.3423211 17.7245942 15.6365345 11.1385721 22.3423211 4.55254989 17.861496 0.151751663 11.1557094 6.73777384 4.44992287 0.151751663 0 4.55254989 6.70578655 11.1385721 0 17.7245942 4.44992287 22.1253925 11.1557094 15.5393703 17.861496 22.1253925"></polygon>
                            <polygon points="70.4262099 17.7245942 63.7204233 11.1385721 70.4262099 4.55254989 65.976287 0.151751663 59.2705004 6.73777384 52.5647139 0.151751663 48.0838888 4.55254989 54.7896753 11.1385721 48.0838888 17.7245942 52.5647139 22.1253925 59.2705004 15.5393703 65.976287 22.1253925"></polygon>
                            <path d="M38.2569758,54.0842927 C36.619157,52.1418714 35.7847964,49.3496408 35.7847964,45.7683016 L35.7847964,38.8484257 L13.3806709,38.8484257 L13.3806709,31.9589002 L57.4472682,31.9589002 L57.4472682,46.2235565 C57.4472682,49.5013925 56.5820054,52.1418714 54.8205776,54.0842927 C53.090052,56.026714 50.3706547,57.0282749 46.7241901,57.0282749 C42.7378009,57.0282749 39.9256969,56.026714 38.2569758,54.0842927 L38.2569758,54.0842927 Z M50.4633614,48.8033348 C51.2050152,47.9231752 51.5758422,46.6788115 51.5758422,45.1005942 L51.5758422,38.8484257 L41.6253202,38.8484257 L41.6253202,45.1005942 C41.6253202,46.6788115 42.0270493,47.9231752 42.8305076,48.8033348 C43.6339659,49.6834945 44.9318601,50.1083991 46.6932879,50.1083991 C48.4547157,50.1083991 49.6908054,49.6834945 50.4633614,48.8033348 L50.4633614,48.8033348 Z"></path>
                        </g>
                        <path d="M6.25749238,0.0607006652 C3.25997489,0.0607006652 0.818697758,2.36732594 0.818697758,5.28095787 L0.818697758,100.307849 C0.818697758,103.251831 3.25997489,105.558457 6.25749238,105.558457 L112.283085,105.558457 C115.280603,105.558457 117.752782,103.221481 117.752782,100.307849 L117.752782,5.28095787 C117.752782,2.33697561 115.280603,0.0607006652 112.283085,0.0607006652 L6.25749238,0.0607006652 Z M27.8581596,5.14169401 C27.8581596,6.59850998 26.6529722,7.75182262 25.2005668,7.75182262 C23.7172592,7.75182262 22.542974,6.56815965 22.542974,5.14169401 C22.542974,3.68487805 23.7481614,2.53156541 25.2005668,2.53156541 C26.6838744,2.53156541 27.8581596,3.71522838 27.8581596,5.14169401 Z M34.6405668,2.53156541 C36.1238744,2.53156541 37.2981596,3.71522838 37.2981596,5.14169401 C37.2981596,6.59850998 36.0929722,7.75182262 34.6405668,7.75182262 C33.1572592,7.75182262 31.982974,6.56815965 31.982974,5.14169401 C31.982974,3.68487805 33.1881614,2.53156541 34.6405668,2.53156541 L34.6405668,2.53156541 Z M14.2611731,2.53156541 C15.7444807,2.53156541 16.9187659,3.71522838 16.9187659,5.14169401 C16.9187659,6.59850998 15.7135785,7.75182262 14.2611731,7.75182262 C12.7778655,7.75182262 11.6035803,6.56815965 11.6035803,5.14169401 C11.6035803,3.68487805 12.7778655,2.53156541 14.2611731,2.53156541 L14.2611731,2.53156541 Z M11.6344825,105.558457 L11.6344825,16.0607007 L106.813388,16.0607007 L106.813388,105.558457 L11.6344825,105.558457 Z M93.1018489,7.87322395 C91.6641682,7.87322395 90.4986978,6.70169633 90.4986978,5.26309534 L90.4986978,5.26309534 C90.4986978,3.82156112 91.6720101,2.65296674 93.1018489,2.65296674 L104.210237,2.65296674 C105.647918,2.65296674 106.813388,3.82449435 106.813388,5.26309534 L106.813388,7.87322395 L93.1018489,7.87322395 Z" id="Shape" fill="#E0E0E0"></path>
                    </g>
                </g>
            </g>
        </g>
    </g>
</svg>