<svg width="309" height="218" viewBox="0 0 309 218" fill="none" xmlns="http://www.w3.org/2000/svg">
<path fill-rule="evenodd" clip-rule="evenodd" d="M242.421 52.8316C242.225 52.6886 241.758 52.6379 241.541 52.5951C240.639 52.4173 239.71 52.3398 238.79 52.3398C235.955 52.3441 233.073 52.6224 230.285 53.1042C228.514 53.41 226.374 54.4392 224.613 53.8802C221.545 52.9064 218.444 52.9542 215.533 54.3445C212.871 55.6158 210.851 58.0303 209.672 60.6392C209.494 61.0331 208.773 62.4826 208.568 63.4597C208.481 63.6595 208.397 63.8606 208.321 64.0648C208.107 64.6445 207.914 65.2343 207.735 65.8254C207.659 66.0775 207.467 66.6341 207.695 66.7418C207.33 67.415 207.007 68.1087 206.737 68.825C205.954 70.9081 205.098 73.1931 204.823 75.4009C204.721 76.2185 204.717 77.0407 204.811 77.8599C204.858 78.2647 204.839 79.0789 205.113 79.3867C205.696 80.0399 205.995 79.1254 205.929 78.6899C205.428 75.3703 206.396 72.2531 207.544 69.1327C208.286 67.1149 209.505 65.2689 210.871 63.5972C211.976 62.2439 213.162 61.1783 214.678 60.2811C216.531 59.184 218.512 58.297 220.475 57.4073C221.766 56.8219 223.058 56.2523 224.385 55.7479C224.68 55.6357 225.145 55.348 225.472 55.3469C226.164 55.3444 227.144 55.8549 227.812 56.0449C230.011 56.6699 232.237 57.47 234.509 57.7892C235.966 57.9941 237.331 57.7635 238.694 57.278C238.833 57.2285 239.067 57.101 239.353 56.919C240.365 56.5297 241.322 56.0399 242.155 55.3332C242.635 54.926 243.071 54.3998 243.468 53.9182C243.587 53.7742 243.64 53.6092 243.642 53.4523C243.732 53.4052 243.791 53.3503 243.805 53.2861C243.904 52.8121 243 52.8034 242.421 52.8316Z" fill="#89C5CC"/>
<path fill-rule="evenodd" clip-rule="evenodd" d="M41.9971 92.3416C41.4408 92.792 40.8952 93.2523 40.3629 93.731C39.9572 94.0959 39.2393 94.5327 39.0936 95.0855C38.9422 95.6599 39.4202 96.1977 39.7977 96.545C41.7943 98.3819 44.0426 99.6238 46.8092 99.8303C51.0691 100.148 54.7765 99.0606 58.4726 96.92C61.0689 95.4164 62.7887 93.1923 63.1643 90.1891C66.2562 91.4742 69.2467 93.2453 71.7879 95.4192C73.0418 96.4919 74.1218 97.6803 75.1208 98.9976C75.7605 99.8414 76.3794 100.699 76.9537 101.589C77.2033 101.976 77.4571 102.662 77.8692 102.885C78.3531 103.147 78.9379 102.736 78.9139 102.198C78.8939 101.751 78.4104 101.231 78.1844 100.865C77.8089 100.258 77.4278 99.6537 77.0265 99.0626C76.3771 98.1056 75.7059 97.1622 74.9739 96.2665C73.3288 94.2544 71.2356 92.5922 69.0658 91.1747C64.9031 88.4554 60.3346 86.7422 55.2695 86.5971C52.155 86.5078 49.535 87.5719 46.8716 89.161C45.2135 90.1503 43.5017 91.1231 41.9971 92.3416Z" fill="#DDE3E9"/>
<path fill-rule="evenodd" clip-rule="evenodd" d="M82.3969 79.1919C79.1513 75.8495 75.8945 72.5487 72.2684 69.6056C70.1315 67.8713 67.8793 66.2943 65.6735 64.6498C65.9282 64.8727 66.1777 65.1021 66.4213 65.3371C65.7328 64.8697 64.8315 64.6056 64.1015 64.173C63.2874 63.6905 62.5091 63.1385 61.7457 62.5821C60.2556 61.4963 58.7879 60.3899 57.2562 59.3607C55.5496 58.2142 53.781 57.1548 52.0454 56.0514C50.5724 55.1151 49.0814 54.0901 47.5056 53.3247C46.6467 52.9075 45.7858 52.4129 44.9235 51.9777C44.6348 51.8322 41.7062 49.9829 41.7136 49.9773C41.8755 49.8553 43.3492 50.5478 43.5771 50.641C44.2429 50.9129 44.8796 51.2382 45.5197 51.5624C45.1683 50.8694 44.8902 50.1414 44.7388 49.375C44.6921 49.1384 44.3174 47.4163 44.5091 47.2719C44.6049 47.1997 45.5392 50.2807 45.5871 50.577C45.6259 50.8176 45.6202 51.1641 45.699 51.3919C45.8262 51.7599 45.8197 51.6488 46.0999 51.8561C46.6133 52.236 47.2949 52.4734 47.8506 52.7911C48.1502 52.9583 49.078 53.6217 49.6368 53.8108C51.3277 54.632 53.0415 55.8955 54.6481 56.9444C54.2265 56.152 53.9056 55.3234 53.6716 54.4551C53.6159 54.249 53.0154 52.3996 53.1611 52.2898C53.3251 52.1663 54.4692 54.9908 54.537 55.2582C54.6629 55.7548 54.689 56.3076 54.8466 56.7909C55.0197 57.3213 55.5595 57.5093 56.0461 57.8185C57.8364 58.956 59.5653 60.1647 61.2653 61.4288C63.1202 58.1298 60.9814 54.146 59.1788 51.378C57.8795 49.3831 56.1303 47.6728 54.2834 46.1797C51.8186 44.1869 48.9985 42.5949 46.1819 41.1387C42.8999 39.442 39.3527 38.3907 35.6649 37.905C33.7362 37.6509 31.7629 37.658 29.8147 37.7395C28.863 37.7792 27.9494 37.9053 27.0374 38.2157C26.6263 38.3557 26.229 38.5323 25.8419 38.7299C25.5477 38.8801 24.8361 39.0386 24.667 39.2623C23.2748 41.0744 22.5625 42.8801 22.6713 45.1572C22.7741 47.3127 23.4549 49.4693 24.3788 51.392C25.4076 53.533 26.7309 55.4761 28.4616 57.107C29.782 58.3513 31.2582 59.4342 32.7247 60.503C37.9404 64.3042 44.5531 67.6101 51.3085 66.7608C53.4952 66.486 55.5751 65.7213 57.5187 64.6821C57.9767 64.4372 58.4319 64.1895 58.8642 63.9004C59.1557 63.7055 59.9349 62.8272 60.2281 62.7953C60.6299 62.7516 61.4957 63.569 61.8727 63.8178C64.7379 65.7092 67.528 67.703 70.2597 69.7775C73.166 71.9847 75.9298 74.342 78.6122 76.8101C79.7531 77.8599 80.8867 78.912 81.9945 79.9971C82.2523 80.2495 82.883 81.1792 83.3506 81.2213C83.6464 81.2479 83.8457 80.9954 83.8035 80.7218C83.7302 80.246 82.7292 79.5342 82.3969 79.1919Z" fill="#C1DEE2"/>
<path fill-rule="evenodd" clip-rule="evenodd" d="M239.014 66.2158C237.756 65.9412 236.368 65.9622 235.088 65.9849C228.22 66.0783 221.476 69.3299 217.086 74.5254C213.35 78.9485 212.322 84.4476 211.584 90.0065C211.511 90.5584 211.479 91.1068 211.438 91.6599C211.429 91.7786 211.416 91.8845 211.402 91.9842C211.112 92.2437 210.959 92.5463 211.131 92.8787C210.492 94.2783 209.951 95.7133 209.486 97.1934C208.12 101.55 206.73 105.989 207.586 110.571C207.786 108.05 208.207 105.472 208.71 102.992C208.739 102.85 208.771 102.708 208.803 102.568C208.806 102.553 208.81 102.538 208.813 102.523C208.991 101.764 209.223 101.027 209.504 100.302C209.507 100.294 209.51 100.287 209.513 100.279C209.55 100.183 209.59 100.088 209.629 99.9935C209.709 99.797 209.792 99.6009 209.88 99.4058C209.91 99.3394 209.938 99.2723 209.966 99.2047C210.376 98.2 210.549 97.0679 210.916 96.0284C211.004 95.792 211.096 95.5565 211.192 95.3222C211.198 95.3085 211.203 95.2948 211.209 95.2811C211.469 94.6507 211.757 94.028 212.06 93.4119C212.226 93.2878 212.314 92.9799 212.456 92.7001C212.486 92.645 212.716 92.2773 212.784 92.0655C212.963 91.7193 213.142 91.3731 213.322 91.0275C213.316 91.0296 213.311 91.0316 213.306 91.0336C213.486 90.7018 213.667 90.3714 213.846 90.0424C213.886 89.9701 213.926 89.8977 213.965 89.8252C214.03 89.7098 214.094 89.5945 214.159 89.4795C214.76 88.4029 215.398 87.3479 216.06 86.3059C216.297 85.9341 216.862 85.4009 216.97 84.9834C216.974 84.9678 216.975 84.9534 216.977 84.9385C218.415 82.9196 220.069 81.0575 222.054 79.5821C221.814 79.8414 221.304 80.7213 221.169 80.8955C220.757 81.429 220.309 81.9255 219.859 82.4281C219.054 83.3285 218.268 84.2574 217.57 85.2397C216.293 87.0361 215.191 88.9267 214.149 90.8552C214.139 90.8666 214.128 90.8773 214.119 90.8888C213.595 91.5342 213.266 92.5095 212.889 93.2478C214.38 92.557 216.03 92.107 217.56 91.4936C219.087 90.8822 220.571 90.2012 222.005 89.4016C223.91 88.3388 225.887 87.1389 227.687 85.781C229.75 84.5013 231.484 82.7399 233.014 80.8915C234.825 78.7045 236.484 76.4984 237.51 73.8429C238.014 72.538 238.411 71.1774 238.646 69.8009C238.656 69.7408 238.669 69.6757 238.684 69.6082C238.924 69.1327 239.139 68.6466 239.32 68.1493C239.606 67.3606 240.283 66.493 239.014 66.2158Z" fill="#69A1AC"/>
<path fill-rule="evenodd" clip-rule="evenodd" d="M308.365 176.616C312.862 204.659 203.804 222.95 109.936 210.185C16.0672 197.42 -26.9952 147.571 17.7973 121.01C62.5898 94.4483 303.868 148.573 308.365 176.616Z" fill="#DDE3E9"/>
<path fill-rule="evenodd" clip-rule="evenodd" d="M97.9203 113.155C100.974 113.155 103.449 110.68 103.449 107.626C103.449 104.573 100.974 102.098 97.9203 102.098C94.8669 102.098 92.3916 104.573 92.3916 107.626C92.3916 110.68 94.8669 113.155 97.9203 113.155Z" fill="white"/>
<path fill-rule="evenodd" clip-rule="evenodd" d="M93.1288 16.2165C93.5359 16.2165 93.8659 15.8865 93.8659 15.4793C93.8659 15.0722 93.5359 14.7422 93.1288 14.7422C92.7216 14.7422 92.3916 15.0722 92.3916 15.4793C92.3916 15.8865 92.7216 16.2165 93.1288 16.2165Z" fill="white"/>
<rect x="95.7089" y="14.7422" width="7.74014" height="1.47431" rx="0.737156" fill="white"/>
<path fill-rule="evenodd" clip-rule="evenodd" d="M79.9116 98.7812C79.4233 98.7812 78.9364 98.7911 78.4487 98.8164C78.077 98.8359 77.5089 98.7588 77.1944 98.9905C76.8675 99.2312 76.8901 99.7238 76.9411 100.072C77.211 101.912 77.8697 103.543 79.2478 104.846C81.3695 106.854 83.8019 107.873 86.6803 108.327C88.7021 108.646 90.5686 108.204 92.057 106.766C93.1445 108.784 93.9695 111.018 94.3834 113.272C94.5877 114.384 94.65 115.483 94.6141 116.616C94.591 117.341 94.551 118.065 94.4732 118.787C94.4395 119.101 94.2795 119.576 94.4024 119.872C94.5465 120.221 95.0326 120.254 95.2508 119.957C95.4325 119.71 95.3991 119.225 95.4364 118.933C95.4982 118.447 95.5555 117.961 95.5965 117.473C95.663 116.683 95.7123 115.891 95.7087 115.098C95.7004 113.316 95.3043 111.528 94.7625 109.837C93.7231 106.592 92.0366 103.709 89.4137 101.447C87.801 100.055 85.9552 99.4921 83.8611 99.1897C82.5574 99.0014 81.2323 98.7812 79.9116 98.7812Z" fill="#89C5CC"/>
<path fill-rule="evenodd" clip-rule="evenodd" d="M87.4421 111.681C82.1718 111.681 78.6223 115.928 76.944 120.343C76.3114 122.007 76.1631 123.834 75.9193 125.581C75.841 126.142 75.87 126.997 75.6424 127.496C75.5598 127.677 75.3704 127.742 75.461 127.989C75.5158 128.139 75.6233 128.23 75.7848 128.26C76.1163 128.321 76.5851 127.96 76.8693 127.817C79.2267 126.635 80.7756 124.807 82.0392 122.57C82.8224 121.184 83.6171 119.745 84.0824 118.223C84.3666 117.293 84.5321 116.314 84.6293 115.349C84.6675 114.97 84.7045 114.581 84.7023 114.199C84.7 113.819 84.5236 113.619 84.3968 113.289C86.1554 112.623 88.1403 112.442 89.9216 113.132C91.5692 113.77 92.9378 115.003 93.7041 116.552C93.9032 116.954 94.0568 117.379 94.1686 117.812C94.2418 118.096 94.2453 118.464 94.381 118.721C94.71 119.343 95.4022 118.927 95.3358 118.348C95.1505 116.733 94.2266 115.112 93.0458 113.989C91.5566 112.573 89.5379 111.681 87.4421 111.681Z" fill="#89C5CC"/>
<path fill-rule="evenodd" clip-rule="evenodd" d="M122.246 122.737C125.3 122.737 127.775 120.262 127.775 117.208C127.775 114.155 125.3 111.68 122.246 111.68C119.193 111.68 116.718 114.155 116.718 117.208C116.718 120.262 119.193 122.737 122.246 122.737Z" fill="white"/>
<path fill-rule="evenodd" clip-rule="evenodd" d="M117.455 25.7995C117.862 25.7995 118.192 25.4695 118.192 25.0624C118.192 24.6552 117.862 24.3252 117.455 24.3252C117.048 24.3252 116.718 24.6552 116.718 25.0624C116.718 25.4695 117.048 25.7995 117.455 25.7995Z" fill="white"/>
<rect x="120.035" y="24.3242" width="7.74014" height="1.47431" rx="0.737156" fill="white"/>
<rect x="85" y="31" width="123.474" height="127.528" rx="8" fill="#F2F2F2"/>
<rect x="176.776" y="46.8477" width="25.8005" height="29.8548" rx="8" fill="white"/>
<path fill-rule="evenodd" clip-rule="evenodd" d="M189.676 64.1734C192.933 64.1734 195.574 61.5331 195.574 58.2762C195.574 55.0192 192.933 52.3789 189.676 52.3789C186.419 52.3789 183.779 55.0192 183.779 58.2762C183.779 61.5331 186.419 64.1734 189.676 64.1734Z" fill="#DDE3E9"/>
<rect x="180.462" y="65.6523" width="18.4289" height="2.21147" rx="1.10573" fill="#DDE3E9"/>
<rect x="183.41" y="69.332" width="12.5317" height="2.21147" rx="1.10573" fill="#DDE3E9"/>
<path d="M85 39C85 34.5817 88.5817 31 93 31H200.474C204.892 31 208.474 34.5817 208.474 39V40.9516H85V39Z" fill="#C5CFD6"/>
<path fill-rule="evenodd" clip-rule="evenodd" d="M89.7916 37.6322C90.6058 37.6322 91.2659 36.9721 91.2659 36.1579C91.2659 35.3437 90.6058 34.6836 89.7916 34.6836C88.9773 34.6836 88.3173 35.3437 88.3173 36.1579C88.3173 36.9721 88.9773 37.6322 89.7916 37.6322Z" fill="#F2F2F2"/>
<path fill-rule="evenodd" clip-rule="evenodd" d="M94.2145 37.6322C95.0288 37.6322 95.6889 36.9721 95.6889 36.1579C95.6889 35.3437 95.0288 34.6836 94.2145 34.6836C93.4003 34.6836 92.7402 35.3437 92.7402 36.1579C92.7402 36.9721 93.4003 37.6322 94.2145 37.6322Z" fill="#F2F2F2"/>
<path fill-rule="evenodd" clip-rule="evenodd" d="M98.6374 37.6322C99.4516 37.6322 100.112 36.9721 100.112 36.1579C100.112 35.3437 99.4516 34.6836 98.6374 34.6836C97.8232 34.6836 97.1631 35.3437 97.1631 36.1579C97.1631 36.9721 97.8232 37.6322 98.6374 37.6322Z" fill="#F2F2F2"/>
<g clip-path="url(#clip0)">
<rect x="176.776" y="79.6562" width="25.8005" height="71.5041" rx="8" fill="white"/>
<g clip-path="url(#clip1)">
<rect width="6" height="26" rx="3" transform="matrix(-1 0 0 1 192.776 97.6562)" fill="#DDE3E9"/>
<rect width="6" height="25" rx="3" transform="matrix(-1 0 0 1 192.776 131.656)" fill="#AFB9C5"/>
</g>
</g>
<g clip-path="url(#clip2)">
<g clip-path="url(#clip3)">
<rect x="90.8973" y="47.2188" width="83" height="17" rx="4" fill="white"/>
<g clip-path="url(#clip4)">
<rect x="99.8973" y="52.415" width="25" height="2.59848" rx="1.29924" fill="#DDE3E9"/>
<rect x="99.8973" y="56.7471" width="16.7808" height="2.59848" rx="1.29924" fill="#DDE3E9"/>
</g>
</g>
<g clip-path="url(#clip5)">
<rect x="90.8973" y="67.4922" width="83" height="14" rx="4" fill="white"/>
<g clip-path="url(#clip6)">
<rect x="99.8973" y="71.8047" width="25" height="2.15618" rx="1.07809" fill="#DDE3E9"/>
<rect x="99.8973" y="75.3984" width="16.7808" height="2.15618" rx="1.07809" fill="#DDE3E9"/>
</g>
</g>
<g clip-path="url(#clip7)">
<rect x="90.8973" y="84.8125" width="83" height="14" rx="4" fill="white"/>
<g clip-path="url(#clip8)">
<rect x="99.8973" y="89.125" width="25" height="2.15618" rx="1.07809" fill="#DDE3E9"/>
<rect x="99.8973" y="92.7188" width="16.7808" height="2.15618" rx="1.07809" fill="#DDE3E9"/>
</g>
</g>
<g clip-path="url(#clip9)">
<rect x="90.8973" y="136.785" width="83" height="14" rx="4" fill="white"/>
<g clip-path="url(#clip10)">
<rect x="99.8973" y="141.098" width="25" height="2.15618" rx="1.07809" fill="#DDE3E9"/>
<rect x="99.8973" y="144.691" width="16.7808" height="2.15618" rx="1.07809" fill="#DDE3E9"/>
</g>
</g>
<g clip-path="url(#clip11)">
<rect x="90.8973" y="119.46" width="83" height="14" rx="4" fill="white"/>
<g clip-path="url(#clip12)">
<rect x="99.8973" y="123.772" width="25" height="2.15618" rx="1.07809" fill="#DDE3E9"/>
<rect x="99.8973" y="127.366" width="16.7808" height="2.15618" rx="1.07809" fill="#DDE3E9"/>
</g>
</g>
<g clip-path="url(#clip13)">
<rect x="90.8973" y="102.137" width="83" height="14" rx="4" fill="white"/>
<g clip-path="url(#clip14)">
<rect x="99.8973" y="106.449" width="25" height="2.15618" rx="1.07809" fill="#DDE3E9"/>
<rect x="99.8973" y="110.043" width="16.7808" height="2.15618" rx="1.07809" fill="#DDE3E9"/>
</g>
</g>
</g>
<path fill-rule="evenodd" clip-rule="evenodd" d="M241.596 90.4434C240.142 89.4576 238.209 89.1992 236.469 89.1992C229.674 89.1992 223.287 91.7203 217.769 95.4768C214.746 97.5351 212.041 100.156 209.653 102.885C208.275 104.461 207.046 106.165 206.176 108.06C205.589 109.34 205.186 110.673 204.913 112.048C204.58 113.723 204.315 115.433 204.196 117.136C204.149 117.807 203.759 121.367 204.874 121.427C204.868 121.515 204.866 121.598 204.873 121.673C202.451 125.46 200.955 129.898 199.568 134.105C198.36 137.766 197.285 141.459 196.586 145.246C195.667 150.233 195.063 155.295 194.776 160.353C194.714 161.44 194.672 162.528 194.636 163.616C194.605 164.545 194.573 165.473 194.543 166.402C194.509 167.442 194.326 168.64 194.491 169.675C194.635 170.575 195.415 170.439 195.449 169.543C195.491 168.46 195.484 167.375 195.532 166.292C195.595 164.854 195.659 163.416 195.73 161.979C196.22 151.993 198.057 142.155 201.449 132.722C202.821 128.905 204.394 125.292 206.415 121.761C208.192 118.657 210.329 115.651 212.514 112.852C214.638 110.132 216.846 107.474 219.448 105.17C221.559 103.299 223.882 101.67 226.269 100.154C229.302 98.2287 232.329 96.35 235.613 94.872C237.321 94.1037 239.061 93.416 240.782 92.6788C241.091 92.5462 241.423 92.4175 241.721 92.2639C242.714 91.7516 242.387 90.9801 241.596 90.4434Z" fill="#C1DEE2"/>
<path fill-rule="evenodd" clip-rule="evenodd" d="M214.259 125.316C217.015 125.316 219.467 125.675 222.007 126.77C224.199 127.715 226.196 128.966 228.136 130.329C230.864 132.245 233.013 134.475 234.517 137.43C235.415 139.195 236.074 141.693 235.471 143.618C234.76 145.886 232.808 147.777 230.237 147.377C228.648 147.131 227.191 146.078 225.982 145.088C224.537 143.903 223.38 142.479 222.425 140.896C220.866 138.315 219.951 135.397 218.627 132.7C217.999 131.42 217.392 130.131 216.639 128.915C216.267 128.312 215.87 127.715 215.305 127.268C215.003 127.028 213.728 126.614 214.216 126.076C207.069 126.17 200.737 131.659 199.365 138.453C199.238 139.086 199.138 139.724 199.032 140.362C198.966 140.764 198.993 142.248 198.633 142.505C197.84 143.072 198.173 141.349 198.207 141.101C198.295 140.46 198.389 139.82 198.487 139.181C199.023 135.703 200.571 132.471 203.153 129.991C206.105 127.156 210.088 125.316 214.259 125.316Z" fill="#89C5CC"/>
<path fill-rule="evenodd" clip-rule="evenodd" d="M36.6629 128.172C43.5429 139.714 51.556 150.89 56.3682 163.51C56.1742 162.022 55.9686 160.536 55.7385 159.052C54.5175 151.187 52.9999 143.378 51.4053 135.579C50.5932 131.609 49.7343 127.652 48.8534 123.696C48.3796 121.572 47.9116 119.445 47.4281 117.323C47.311 116.808 47.2103 115.91 47.0637 115C51.7403 130.346 56.2502 145.704 59.549 161.42C59.9817 163.482 60.3503 165.541 60.6521 167.596C60.7554 167.127 60.857 166.658 60.9681 166.191C62.3029 160.586 64.3051 155.025 66.689 149.784C67.8287 147.278 69.1377 144.827 70.6791 142.542C71.6402 141.119 73.9068 139.426 74.7836 137.968C69.9885 146.763 68.2571 157.767 65.4884 167.328C64.8126 169.662 64.1326 171.991 63.4663 174.325C67.6416 165.951 74.1198 159.071 83.1266 156.09C72.2242 163.294 65.6848 175.909 61.2781 188.811C61.2636 188.964 61.2463 189.117 61.2314 189.271C62.5281 186.81 64.1615 184.584 66.3753 183.025C71.1134 179.687 76.3695 180.659 80.9656 183.522C77.3585 181.229 70.8392 183.317 67.8041 185.648C65.6313 187.316 63.7744 189.554 62.1618 191.738C61.7754 192.261 61.2483 192.872 60.6914 193.524C59.9106 198.592 58.6383 203.625 56.8369 208.619C57.1341 207.186 56.9192 204.893 57.0016 203.825C57.0106 203.709 57.0179 203.593 57.0268 203.478C56.753 204.571 56.4884 205.652 56.2337 206.716C56.74 204.686 57.0152 202.568 57.23 200.428C57.2854 199.508 57.3393 198.588 57.3964 197.668C57.3783 195.923 57.3064 194.17 57.1848 192.415C56.7536 190.709 56.2708 189.1 55.8727 187.761C54.4359 182.933 52.3298 178.307 49.7374 173.991C47.3722 170.053 44.5411 166.486 41.2727 163.26C39.5107 161.521 37.6667 159.865 35.8487 158.186C35.1913 157.579 34.0163 156.087 33 155.309C40.4012 159.389 48.0191 163.804 53.4183 170.378C52.7853 167.947 52.0978 165.551 51.3705 163.203C47.6809 151.288 43.0221 138.94 36.6629 128.172Z" fill="#9A9A9A"/>
<path fill-rule="evenodd" clip-rule="evenodd" d="M44.0573 193.508C44.0573 206.739 45.105 217.465 59.169 217.465C73.2329 217.465 74.2807 206.739 74.2807 193.508" fill="#C5CFD6"/>
<rect x="209.599" y="11.793" width="2.21147" height="9.21445" rx="1.10573" fill="#DDE3E9"/>
<rect x="214.76" y="5.89844" width="2.21147" height="15.1117" rx="1.10573" fill="#DDE3E9"/>
<rect x="219.92" y="2.94531" width="2.21147" height="18.0603" rx="1.10573" fill="#DDE3E9"/>
<rect x="225.08" y="5.89844" width="2.21147" height="15.1117" rx="1.10573" fill="#DDE3E9"/>
<rect x="230.24" width="2.21147" height="21.009" rx="1.10573" fill="#C5CFD6"/>
<path fill-rule="evenodd" clip-rule="evenodd" d="M28.2591 112.88C28.2591 108.775 31.577 105.414 35.6306 105.414V112.88L30.5929 118.314C29.1599 116.986 28.2591 115.037 28.2591 112.88Z" fill="#F2F2F2"/>
<path fill-rule="evenodd" clip-rule="evenodd" d="M35.4355 112.785H42.8798C42.8798 114.71 42.0948 116.513 40.8538 117.823C39.4889 119.256 37.5452 120.157 35.4355 120.157C33.4922 120.157 31.7134 119.379 30.3481 118.151L35.4355 112.785Z" fill="#AFB9C5"/>
<path fill-rule="evenodd" clip-rule="evenodd" d="M43.0021 112.782C43.0021 108.728 39.6841 105.41 35.6305 105.41V112.782H43.0021ZM31.9447 105.41L34.8934 112.045L28.259 109.096C28.915 107.376 30.3882 106.066 31.9447 105.41Z" fill="#C5CFD6"/>
<path fill-rule="evenodd" clip-rule="evenodd" d="M248.92 116.168C248.212 116.92 247.208 117.392 246.092 117.392C243.948 117.392 242.21 115.66 242.21 113.522C242.21 111.385 243.948 109.652 246.092 109.652V102.465C239.993 102.465 235 107.442 235 113.522C235 119.603 239.993 124.58 246.092 124.58C249.296 124.58 252.192 123.228 254.166 121.079L248.92 116.168Z" fill="#F2F2F2"/>
<path fill-rule="evenodd" clip-rule="evenodd" d="M246.057 102.465V109.652C248.195 109.652 249.927 111.385 249.927 113.522H257.115C257.115 107.442 252.138 102.465 246.057 102.465Z" fill="#AFB9C5"/>
<path fill-rule="evenodd" clip-rule="evenodd" d="M249.779 113.52C249.779 114.775 249.188 115.891 248.269 116.612L252.788 122.365C255.419 120.306 257.115 117.113 257.115 113.52H249.779Z" fill="#C5CFD6"/>
<path fill-rule="evenodd" clip-rule="evenodd" d="M197.824 14.5606C197.279 15.1371 196.507 15.499 195.649 15.499C193.999 15.499 192.662 14.1706 192.662 12.532C192.662 10.8933 193.999 9.56493 195.649 9.56493V4.05469C190.957 4.05469 187.116 7.87032 187.116 12.532C187.116 17.1936 190.957 21.0093 195.649 21.0093C198.114 21.0093 200.341 19.9734 201.859 18.3254L197.824 14.5606Z" fill="#F2F2F2"/>
<path fill-rule="evenodd" clip-rule="evenodd" d="M195.594 4.05469V9.56493C197.232 9.56493 198.561 10.8933 198.561 12.532H204.071C204.071 7.87032 200.255 4.05469 195.594 4.05469Z" fill="#AFB9C5"/>
<path fill-rule="evenodd" clip-rule="evenodd" d="M198.569 12.5312C198.569 13.4731 198.125 14.3102 197.436 14.8507L200.826 19.1657C202.799 17.6209 204.071 15.2263 204.071 12.5312H198.569Z" fill="#C5CFD6"/>
<path fill-rule="evenodd" clip-rule="evenodd" d="M63.6451 21.0002C63.6436 21.0039 63.6421 21.0076 63.6399 21.012C63.6421 21.0084 63.6451 20.9936 63.6451 21.0002Z" fill="#C5CFD6"/>
<path fill-rule="evenodd" clip-rule="evenodd" d="M63.6417 21.0058C63.6417 21.0066 63.6409 21.0081 63.6409 21.0095C63.6409 21.0058 63.6475 20.9948 63.6417 21.0058Z" fill="#C5CFD6"/>
<path fill-rule="evenodd" clip-rule="evenodd" d="M63.6673 20.9435C63.6621 20.9582 63.6555 20.9722 63.6496 20.987C63.6525 20.9796 63.6555 20.9737 63.6584 20.9663C63.5817 21.158 63.6304 21.0334 63.6673 20.9435Z" fill="#C5CFD6"/>
<path fill-rule="evenodd" clip-rule="evenodd" d="M63.6508 20.9879C63.6478 20.9945 63.6449 21.0019 63.6419 21.0085C63.6205 21.0498 63.6508 20.9879 63.6508 20.9879Z" fill="#C5CFD6"/>
<path fill-rule="evenodd" clip-rule="evenodd" d="M63.6421 21.006C63.6421 21.0053 63.6421 21.0053 63.6429 21.0046C63.6421 21.0053 63.6421 21.0053 63.6421 21.006Z" fill="#C5CFD6"/>
<path fill-rule="evenodd" clip-rule="evenodd" d="M63.6386 21.0113C63.6342 21.0202 63.6593 20.9774 63.6386 21.0113V21.0113Z" fill="#C5CFD6"/>
<path fill-rule="evenodd" clip-rule="evenodd" d="M63.6418 21.006L63.6432 21.0046C63.6425 21.0053 63.6425 21.006 63.6418 21.006Z" fill="#C5CFD6"/>
<rect x="45.9507" y="1.84375" width="35.0149" height="23.2204" rx="4" fill="#DDE3E9"/>
<path fill-rule="evenodd" clip-rule="evenodd" d="M59.2196 8.47266L48.8994 25.0587H69.5398L59.2196 8.47266Z" fill="#AFB9C5"/>
<path fill-rule="evenodd" clip-rule="evenodd" d="M69.3555 12.8984L60.3253 25.0615H78.3856L69.3555 12.8984Z" fill="#C5CFD6"/>
<path fill-rule="evenodd" clip-rule="evenodd" d="M73.2255 12.9C75.0576 12.9 76.5427 11.4149 76.5427 9.58283C76.5427 7.75079 75.0576 6.26562 73.2255 6.26562C71.3935 6.26562 69.9083 7.75079 69.9083 9.58283C69.9083 11.4149 71.3935 12.9 73.2255 12.9Z" fill="white"/>
<path fill-rule="evenodd" clip-rule="evenodd" d="M239.452 178.387C239.453 178.391 239.455 178.394 239.457 178.399C239.455 178.395 239.452 178.38 239.452 178.387Z" fill="#C5CFD6"/>
<path fill-rule="evenodd" clip-rule="evenodd" d="M239.455 178.393C239.455 178.393 239.456 178.395 239.456 178.396C239.456 178.393 239.449 178.382 239.455 178.393Z" fill="#C5CFD6"/>
<path fill-rule="evenodd" clip-rule="evenodd" d="M239.429 178.33C239.435 178.345 239.441 178.359 239.447 178.374C239.444 178.366 239.441 178.36 239.438 178.353C239.515 178.545 239.466 178.42 239.429 178.33Z" fill="#C5CFD6"/>
<path fill-rule="evenodd" clip-rule="evenodd" d="M239.446 178.375C239.449 178.381 239.452 178.389 239.455 178.395C239.476 178.437 239.446 178.375 239.446 178.375Z" fill="#C5CFD6"/>
<path fill-rule="evenodd" clip-rule="evenodd" d="M239.455 178.393C239.455 178.392 239.455 178.392 239.454 178.391C239.455 178.392 239.455 178.392 239.455 178.393Z" fill="#C5CFD6"/>
<path fill-rule="evenodd" clip-rule="evenodd" d="M239.458 178.398C239.462 178.407 239.437 178.364 239.458 178.398V178.398Z" fill="#C5CFD6"/>
<path fill-rule="evenodd" clip-rule="evenodd" d="M239.455 178.393L239.453 178.391C239.454 178.392 239.454 178.393 239.455 178.393Z" fill="#C5CFD6"/>
<rect width="52.3381" height="34.6463" rx="4" transform="matrix(-1 0 0 1 265.623 150.012)" fill="#DDE3E9"/>
<path fill-rule="evenodd" clip-rule="evenodd" d="M243.979 154L259.111 178.695H228.848L243.979 154Z" fill="#AFB9C5"/>
<path fill-rule="evenodd" clip-rule="evenodd" d="M228.378 160.613L241.755 178.693H215L228.378 160.613Z" fill="#C5CFD6"/>
<path fill-rule="evenodd" clip-rule="evenodd" d="M194.976 166.596C192.228 166.596 190 164.368 190 161.62C190 158.872 192.228 156.645 194.976 156.645C197.724 156.645 199.952 158.872 199.952 161.62C199.952 164.368 197.724 166.596 194.976 166.596Z" fill="white"/>
<path d="M129 137.231C129 115.818 146.355 98.4619 167.769 98.4619C189.182 98.4619 206.538 115.817 206.538 137.231C206.538 158.644 189.184 176 167.769 176C146.356 176 129 158.645 129 137.231ZM180.899 114.963C177.052 112.69 172.563 111.385 167.769 111.385C153.492 111.385 141.923 122.955 141.923 137.231C141.923 142.025 143.228 146.514 145.501 150.361L180.899 114.963ZM190.037 124.101L154.639 159.499C158.487 161.773 162.976 163.077 167.769 163.077C182.046 163.077 193.615 151.507 193.615 137.231C193.615 132.437 192.311 127.949 190.037 124.101Z" fill="#4A90E2"/>
<path d="M132.231 130.769C132.231 109.356 149.586 92 171 92C192.413 92 209.769 109.355 209.769 130.769C209.769 152.182 192.414 169.538 171 169.538C149.587 169.538 132.231 152.184 132.231 130.769ZM184.13 108.501C180.282 106.228 175.794 104.923 171 104.923C156.723 104.923 145.154 116.493 145.154 130.769C145.154 135.563 146.458 140.052 148.732 143.9L184.13 108.501ZM193.268 117.639L157.87 153.037C161.718 155.311 166.206 156.615 171 156.615C185.277 156.615 196.846 145.045 196.846 130.769C196.846 125.975 195.542 121.487 193.268 117.639Z" fill="#E2685E"/>
<defs>
<clipPath id="clip0">
</clipPath>
<clipPath id="clip1">
</clipPath>
<clipPath id="clip2">
</clipPath>
<clipPath id="clip3">
</clipPath>
<clipPath id="clip4">
</clipPath>
<clipPath id="clip5">
</clipPath>
<clipPath id="clip6">
</clipPath>
<clipPath id="clip7">
</clipPath>
<clipPath id="clip8">
</clipPath>
<clipPath id="clip9">
</clipPath>
<clipPath id="clip10">
</clipPath>
<clipPath id="clip11">
</clipPath>
<clipPath id="clip12">
</clipPath>
<clipPath id="clip13">
</clipPath>
<clipPath id="clip14">
</clipPath>
</defs>
</svg>
