<svg width="38" height="38" viewBox="0 0 38 38" fill="none" xmlns="http://www.w3.org/2000/svg">
<g clip-path="url(#clip0)">
<path d="M11.805 1.65033C10.7689 0.586031 9.37079 0 7.86719 0H6.75391C4.29452 0 2.30078 1.99366 2.30078 4.45312C2.30078 7.32116 2.30078 9.30384 2.30078 12.2461C2.30078 12.8614 2.79871 13.3594 3.41406 13.3594H12.3203C12.9357 13.3594 13.4336 12.8614 13.4336 12.2461V5.56641C13.4336 4.06281 12.8476 2.66468 11.805 1.65033Z" fill="#2256AC"/>
<path d="M35.6992 5.56641V36.8759C35.6992 37.7887 34.7195 38.2786 34.007 37.8333L23.4531 31.4875L12.8992 37.8332C12.1198 38.2563 11.207 37.7442 11.207 36.8758V4.45312C11.207 2.2043 9.40352 0 6.75391 0H30.1328C33.2055 0 35.6992 2.49375 35.6992 5.56641Z" fill="#4D8AF0"/>
<path d="M35.6992 5.56641V36.8759C35.6992 37.7887 34.7195 38.2786 34.007 37.8333L23.4531 31.4875V0H30.1328C33.2055 0 35.6992 2.49375 35.6992 5.56641Z" fill="#2256AC"/>
<path d="M30.0216 14.7399L26.1696 14.1832L24.4552 10.6875C24.2547 10.3091 23.8539 10.1086 23.4532 10.1086C23.0525 10.1086 22.6517 10.3091 22.4513 10.6875L20.7369 14.1832L16.8849 14.7399C15.9721 14.8735 15.6157 15.9868 16.2615 16.6324L19.0447 19.3489L18.3989 23.2007C18.2431 24.0914 19.2006 24.8039 20.0021 24.3586L23.4533 22.5551L26.9045 24.3586C27.706 24.8039 28.6635 24.0914 28.5077 23.2007L27.8619 19.3489L30.6451 16.6324C31.2908 15.9868 30.9345 14.8735 30.0216 14.7399Z" fill="#FEDB41"/>
<path d="M30.6448 16.6324L27.8616 19.3489L28.5074 23.2008C28.6633 24.0914 27.7058 24.804 26.9042 24.3586L23.4531 22.5551V10.1086C23.8539 10.1086 24.2547 10.309 24.4551 10.6875L26.1695 14.1832L30.0215 14.7398C30.9344 14.8735 31.2907 15.9868 30.6448 16.6324Z" fill="#FFCC33"/>
</g>
<defs>
<clipPath id="clip0">
<rect width="38" height="38" fill="white"/>
</clipPath>
</defs>
</svg>
