<?xml version="1.0" encoding="UTF-8" standalone="no"?>
<svg width="96px" height="123px" viewBox="0 0 96 123" version="1.1" xmlns="http://www.w3.org/2000/svg" xmlns:xlink="http://www.w3.org/1999/xlink">
    <!-- Generator: Sketch 3.7.2 (28276) - http://www.bohemiancoding.com/sketch -->
    <title>Group 7</title>
    <desc>Created with Sketch.</desc>
    <defs>
        <path d="M82,0 L13.6666667,0 C6.15,0 0.0683333333,6.15 0.0683333333,13.6666667 L0,123 L47.8333333,102.5 L95.6666667,123 L95.6666667,13.6666667 C95.6666667,6.15 89.5166667,0 82,0 L82,0 Z" id="path-1"></path>
        <mask id="mask-2" maskContentUnits="userSpaceOnUse" maskUnits="objectBoundingBox" x="0" y="0" width="95.6666667" height="123" fill="white">
            <use xlink:href="#path-1"></use>
        </mask>
    </defs>
    <g id="All-Sandbox" stroke="none" stroke-width="1" fill="none" fill-rule="evenodd">
        <g id="Empty-State---Bookmarks" transform="translate(-512.000000, -300.000000)">
            <g id="Group-7" transform="translate(512.000000, 300.000000)">
                <use id="Shape" stroke="#E0E0E0" mask="url(#mask-2)" stroke-width="20" fill="#F7F7F7" xlink:href="#path-1"></use>
                <g id="Booksad" transform="translate(21.000000, 31.000000)">
                    <g id="Page-1">
                        <g>
                            <g id="Artboard-1">
                                <g id="Booksad">
                                    <path d="M48.675,13.1320755 C52.1682012,13.1320755 55,10.1923602 55,6.56603774 C55,2.93971523 52.1682012,0 48.675,0 C45.1817987,0 42.35,2.93971523 42.35,6.56603774 C42.35,10.1923602 45.1817987,13.1320755 48.675,13.1320755 L48.675,13.1320755 Z" id="Oval-1" fill="#E0E0E0"></path>
                                    <ellipse id="Oval-1" fill="#E0E0E0" cx="6.325" cy="6.56603774" rx="6.325" ry="6.56603774"></ellipse>
                                    <path d="M18.15,29 C18.15,29 27.0777733,21.6132075 35.75,29" id="Path-4" stroke="#E0E0E0" stroke-width="5" stroke-linecap="round"></path>
                                </g>
                            </g>
                        </g>
                    </g>
                </g>
            </g>
        </g>
    </g>
</svg>