<svg width="24" height="24" viewBox="0 0 24 24" fill="none" xmlns="http://www.w3.org/2000/svg">
<circle cx="12" cy="12" r="12" fill="#FFE1D2"/>
<g clip-path="url(#clip0)">
<path d="M12 19.3332C16.05 19.3332 19.3333 16.0499 19.3333 11.9998C19.3333 7.94975 16.05 4.6665 12 4.6665C7.94987 4.6665 4.66663 7.94975 4.66663 11.9998C4.66663 16.0499 7.94987 19.3332 12 19.3332Z" fill="#FE8205"/>
<path d="M19.3333 11.9998C19.3333 7.97195 16.0279 4.6665 12 4.6665V19.3332C16.0279 19.3332 19.3333 16.0277 19.3333 11.9998Z" fill="#FA5D0F"/>
<path d="M12 6.41382C8.92 6.41382 6.41406 8.91976 6.41406 11.9998C6.41406 15.0798 8.92 17.6143 12 17.6143C15.08 17.6143 17.5859 15.0798 17.5859 11.9998C17.5859 8.91976 15.08 6.41382 12 6.41382Z" fill="#F0F7FF"/>
<path d="M17.5859 11.9998C17.5859 8.91976 15.08 6.41382 12 6.41382V17.6143C15.08 17.6143 17.5859 15.0798 17.5859 11.9998Z" fill="#DFE7F4"/>
<path d="M12 8.13257C11.7625 8.13257 11.5703 8.32475 11.5703 8.56226V12.8591C11.5703 13.0966 11.7625 13.2888 12 13.2888C12.2375 13.2888 12.4297 13.0966 12.4297 12.8591V8.56226C12.4297 8.32475 12.2375 8.13257 12 8.13257Z" fill="#575F64"/>
<path d="M12.4297 12.8591V8.56226C12.4297 8.32475 12.2375 8.13257 12 8.13257V13.2888C12.2375 13.2888 12.4297 13.0966 12.4297 12.8591Z" fill="#474F54"/>
<path d="M14.5781 11.5701H12H11.1406C10.9031 11.5701 10.7109 11.7623 10.7109 11.9998C10.7109 12.2373 10.9031 12.4294 11.1406 12.4294H12H14.5781C14.8156 12.4294 15.0078 12.2373 15.0078 11.9998C15.0078 11.7623 14.8156 11.5701 14.5781 11.5701Z" fill="#575F64"/>
<path d="M15.0078 11.9998C15.0078 11.7623 14.8156 11.5701 14.5781 11.5701H12V12.4294H14.5781C14.8156 12.4294 15.0078 12.2373 15.0078 11.9998Z" fill="#474F54"/>
</g>
<defs>
<clipPath id="clip0">
<rect x="4.66663" y="4.6665" width="14.6667" height="14.6667" fill="white"/>
</clipPath>
</defs>
</svg>
