<svg width="28" height="28" viewBox="0 0 28 28" fill="none" xmlns="http://www.w3.org/2000/svg">
<circle cx="14" cy="14" r="14" fill="#FFE1D2"/>
<path d="M18.2795 9.25V4.625H9.72046V9.25C9.72046 10.9584 10.708 12.4338 12.1387 13.1286C12.4619 13.2855 12.6719 13.6102 12.6719 13.972V14.028C12.6719 14.3898 12.4619 14.7145 12.1387 14.8715C10.708 15.5663 9.72046 17.0416 9.72046 18.7501V23.375H18.2795V18.75C18.2795 17.0416 17.2919 15.5663 15.8612 14.8714C15.538 14.7145 15.3281 14.3898 15.3281 14.028V13.972C15.3281 13.6102 15.538 13.2855 15.8612 13.1285C17.2919 12.4338 18.2795 10.9585 18.2795 9.25Z" fill="#FFC77E"/>
<path d="M17.6546 18.9845C17.5251 18.9845 17.4202 18.8796 17.4202 18.7501C17.4202 17.4342 16.6609 16.2153 15.4858 15.6446C15.3694 15.588 15.3208 15.4478 15.3774 15.3313C15.434 15.2149 15.5742 15.1664 15.6906 15.2229C17.026 15.8714 17.8889 17.2559 17.8889 18.75C17.8889 18.8796 17.784 18.9845 17.6546 18.9845Z" fill="#FCF9DE"/>
<path d="M14.3262 14.8714C14.6494 14.7144 14.8594 14.3898 14.8594 14.028V13.972C14.8594 13.6102 14.6494 13.2855 14.3262 13.1285C12.8955 12.4337 11.908 10.9584 11.908 9.24992V4.625H9.72046V9.25C9.72046 10.9584 10.708 12.4338 12.1387 13.1286C12.4619 13.2856 12.6719 13.6102 12.6719 13.972V14.028C12.6719 14.3898 12.4619 14.7145 12.1387 14.8715C10.708 15.5663 9.72046 17.0416 9.72046 18.7501V23.375H11.908V18.75C11.908 17.0416 12.8955 15.5663 14.3262 14.8714Z" fill="#FFA72C"/>
<path d="M10.8367 10.8503C11.4187 12.0113 12.6124 12.8096 13.9882 12.8096H14.0118C15.3876 12.8096 16.5813 12.0113 17.1633 10.8503H10.8367Z" fill="#DC8D17"/>
<path d="M17.5416 22.1597V21.5774C17.5416 19.6146 15.9582 18.0178 14.0118 18.0178H13.9881C12.0418 18.0178 10.4583 19.6146 10.4583 21.5774V22.1597H17.5416Z" fill="#DC8D17"/>
<path d="M14.3125 12.0654H13.6875V18.3154H14.3125V12.0654Z" fill="#DC8D17"/>
<path d="M11.908 18.7502C11.908 18.7346 11.9087 18.7192 11.9088 18.7036C11.0304 19.3517 10.4584 20.3983 10.4584 21.5775V22.1599H11.9081V18.7502H11.908Z" fill="#9B6508"/>
<path d="M13.6875 15.2539C13.884 15.1115 14.093 14.9856 14.3125 14.8781V13.1213C14.093 13.0138 13.884 12.888 13.6875 12.7455V15.2539Z" fill="#DB9C2E"/>
<path d="M13.7682 12.8023C13.0757 12.3244 12.5302 11.6462 12.2136 10.8503H10.8367C11.3875 11.9489 12.486 12.7224 13.7682 12.8023Z" fill="#9B6508"/>
<path d="M18.868 6.27469H9.13203C8.88648 6.27469 8.6875 6.07563 8.6875 5.83016V5.08235C8.6875 4.8368 8.88656 4.63782 9.13203 4.63782H18.868C19.1135 4.63782 19.3125 4.83688 19.3125 5.08235V5.83016C19.3125 6.07563 19.1134 6.27469 18.868 6.27469Z" fill="#BF6C0D"/>
<path d="M9.13203 21.7257H18.868C19.1135 21.7257 19.3125 21.9248 19.3125 22.1702V22.9181C19.3125 23.1636 19.1134 23.3626 18.868 23.3626H9.13203C8.88648 23.3626 8.6875 23.1635 8.6875 22.9181V22.1702C8.6875 21.9248 8.88656 21.7257 9.13203 21.7257Z" fill="#BF6C0D"/>
<path d="M12.993 8.07336C13.3814 8.07336 13.6962 7.75856 13.6962 7.37024C13.6962 6.98191 13.3814 6.66711 12.993 6.66711C12.6047 6.66711 12.2899 6.98191 12.2899 7.37024C12.2899 7.75856 12.6047 8.07336 12.993 8.07336Z" fill="#FFD59A"/>
<path d="M12.993 21.4978C13.3814 21.4978 13.6962 21.183 13.6962 20.7947C13.6962 20.4064 13.3814 20.0916 12.993 20.0916C12.6047 20.0916 12.2899 20.4064 12.2899 20.7947C12.2899 21.183 12.6047 21.4978 12.993 21.4978Z" fill="#9B6508"/>
<path d="M10.875 5.83016V5.08243C10.875 4.8368 11.0741 4.63782 11.3195 4.63782H9.13203C8.88648 4.63782 8.6875 4.83688 8.6875 5.08243V5.83016C8.6875 6.07571 8.88656 6.27469 9.13203 6.27469H11.3195C11.0741 6.27469 10.875 6.07563 10.875 5.83016Z" fill="#A56021"/>
<path d="M10.875 22.918V22.1702C10.875 21.9247 11.0741 21.7257 11.3195 21.7257H9.13203C8.88648 21.7257 8.6875 21.9248 8.6875 22.1702V22.918C8.6875 23.1636 8.88656 23.3625 9.13203 23.3625H11.3195C11.0741 23.3626 10.875 23.1636 10.875 22.918Z" fill="#A56021"/>
</svg>
