<?xml version="1.0" encoding="UTF-8" standalone="no"?>
<svg width="124px" height="124px" viewBox="0 0 124 124" version="1.1" xmlns="http://www.w3.org/2000/svg" xmlns:xlink="http://www.w3.org/1999/xlink">
    <!-- Generator: Sketch 3.7.2 (28276) - http://www.bohemiancoding.com/sketch -->
    <title>ic_question_answer_white_24px</title>
    <desc>Created with Sketch.</desc>
    <defs>
        <path d="M124,82.6666667 L124,8.26666667 C124,3.72 120.28,0 115.733333,0 L8.26666667,0 C3.72,0 0,3.72 0,8.26666667 L0,124 L33.0666667,90.9333333 L115.733333,90.9333333 C120.28,90.9333333 124,87.2133333 124,82.6666667 L124,82.6666667 Z" id="path-1"></path>
        <mask id="mask-2" maskContentUnits="userSpaceOnUse" maskUnits="objectBoundingBox" x="0" y="0" width="124" height="124" fill="white">
            <use xlink:href="#path-1"></use>
        </mask>
    </defs>
    <g id="All-Sandbox" stroke="none" stroke-width="1" fill="none" fill-rule="evenodd">
        <g id="Empty-State---Topic" transform="translate(-499.000000, -299.000000)">
            <g id="ic_question_answer_white_24px" transform="translate(499.000000, 299.000000)">
                <use id="Shape" stroke="#E1E1E1" mask="url(#mask-2)" stroke-width="20" fill="#F7F7F7" xlink:href="#path-1"></use>
                <g id="Booksad" transform="translate(35.000000, 32.000000)">
                    <g id="Page-1">
                        <g>
                            <g id="Artboard-1">
                                <g id="Booksad">
                                    <path d="M48.675,13.1320755 C52.1682012,13.1320755 55,10.1923602 55,6.56603774 C55,2.93971523 52.1682012,0 48.675,0 C45.1817987,0 42.35,2.93971523 42.35,6.56603774 C42.35,10.1923602 45.1817987,13.1320755 48.675,13.1320755 L48.675,13.1320755 Z" id="Oval-1" fill="#E0E0E0"></path>
                                    <ellipse id="Oval-1" fill="#E0E0E0" cx="6.325" cy="6.56603774" rx="6.325" ry="6.56603774"></ellipse>
                                    <path d="M18.15,29 C18.15,29 27.0777733,21.6132075 35.75,29" id="Path-4" stroke="#E0E0E0" stroke-width="5" stroke-linecap="round"></path>
                                </g>
                            </g>
                        </g>
                    </g>
                </g>
            </g>
        </g>
    </g>
</svg>