<?xml version="1.0" encoding="UTF-8" standalone="no"?>
<svg width="64px" height="64px" viewBox="0 0 64 64" version="1.1" xmlns="http://www.w3.org/2000/svg" xmlns:xlink="http://www.w3.org/1999/xlink">
    <!-- Generator: Sketch 43.2 (39069) - http://www.bohemiancoding.com/sketch -->
    <title>linkedin (1)</title>
    <desc>Created with Sketch.</desc>
    <defs></defs>
    <g id="Page-4" stroke="none" stroke-width="1" fill="none" fill-rule="evenodd">
        <g id="linkedin-(1)" fill-rule="nonzero">
            <ellipse id="Oval" fill="#0077B5" cx="31.7723186" cy="32.0544561" rx="31.7723186" ry="31.493614"></ellipse>
            <path d="M50.7559646,34.5886316 L50.7559646,47.5727719 L43.1614867,47.5727719 L43.1614867,35.458807 C43.1614867,32.4171228 42.0649912,30.3399298 39.3152566,30.3399298 C37.2168496,30.3399298 35.9702655,31.738386 35.4197522,33.0924912 C35.219823,33.5764211 35.1682832,34.2484211 35.1682832,34.9271579 L35.1682832,47.5722105 L27.5732389,47.5722105 C27.5732389,47.5722105 27.6751858,27.0551579 27.5732389,24.9313684 L35.1688496,24.9313684 L35.1688496,28.1397895 C35.1535575,28.1650526 35.1320354,28.1897544 35.1184425,28.2138947 L35.1688496,28.2138947 L35.1688496,28.1397895 C36.1781239,26.6004211 37.9780531,24.3997193 42.0134513,24.3997193 C47.0099823,24.3997193 50.7559646,27.6356491 50.7559646,34.5886316 L50.7559646,34.5886316 Z M19.628177,14.0176842 C17.0302301,14.0176842 15.3305487,15.7080702 15.3305487,17.9289825 C15.3305487,20.1027368 16.9809558,21.8419649 19.5284956,21.8419649 L19.5777699,21.8419649 C22.2266903,21.8419649 23.8736991,20.1027368 23.8736991,17.9289825 C23.823292,15.7080702 22.2266903,14.0176842 19.628177,14.0176842 L19.628177,14.0176842 Z M15.7819469,47.5727719 L23.3741593,47.5727719 L23.3741593,24.9313684 L15.7819469,24.9313684 L15.7819469,47.5727719 Z" id="Shape" fill="#F1F2F2"></path>
        </g>
    </g>
</svg>