<svg xmlns="http://www.w3.org/2000/svg" width="244" height="106" viewBox="0 0 244 106">
    <g fill="none" fill-rule="evenodd">
        <rect width="107.2" height="24.091" x="16.8" fill="#F3F3F3" rx="12"/>
        <rect width="76" height="32.121" x="156" y="24.091" fill="#D9DAD9" fill-opacity=".3" rx="16"/>
        <rect width="89.6" height="9.636" y="77.894" fill="#F3F3F3" rx="4.8"/>
        <rect width="67.2" height="9.636" x="176.8" y="62.636" fill="#F3F3F3" rx="4.8"/>
        <rect width="44" height="9.636" x="59.2" y="96.364" fill="#F3F3F3" rx="4.818"/>
        <rect width="32.8" height="9.636" x="64.8" y="32.924" fill="#F3F3F3" rx="4.818"/>
        <rect width="32.8" height="9.636" x="162.4" y="81.909" fill="#F3F3F3" rx="4.818"/>
        <g fill-rule="nonzero">
            <path fill="#DEDEDE" d="M107.572 72.674c0-15.076 10.883-27.665 25.228-30.375a31.162 31.162 0 0 0-5.786-.541C109.913 41.758 96 55.627 96 72.674s13.913 30.917 31.014 30.917c1.94 0 3.878-.181 5.786-.542-14.345-2.71-25.228-15.299-25.228-30.375z"/>
            <g fill="gray">
                <path d="M127.2 1.606c-14.101.016-25.529 11.434-25.545 25.524v23.516A33.406 33.406 0 0 0 93.6 72.428C93.6 90.94 108.674 106 127.2 106c18.526 0 33.6-15.06 33.6-33.572a33.406 33.406 0 0 0-8.055-21.782V27.13C152.73 13.04 141.301 1.622 127.2 1.606zm0 2.76c12.578.014 22.77 10.197 22.784 22.764v20.649a33.75 33.75 0 0 0-4.143-3.265V27.13c0-10.287-8.346-18.626-18.641-18.626-10.295 0-18.641 8.34-18.641 18.626V44.51a33.924 33.924 0 0 0-4.143 3.265V27.13c.015-12.567 10.206-22.75 22.784-22.765zm15.88 38.483a33.573 33.573 0 0 0-31.76 0V27.13c0-8.762 7.11-15.865 15.88-15.865s15.88 7.103 15.88 15.866v15.72zm-15.88 60.392c-17.004 0-30.838-13.823-30.838-30.813s13.834-30.812 30.838-30.812 30.838 13.823 30.838 30.812c0 16.99-13.834 30.813-30.838 30.813z"/>
                <path d="M131.97 95.592c-1.57.32-3.168.482-4.77.48a1.38 1.38 0 1 0 0 2.76c1.788.001 3.572-.178 5.325-.536a1.38 1.38 0 1 0-.553-2.704h-.001zM136.63 94.122a1.377 1.377 0 0 0-.292 2.394c.405.294.94.346 1.393.135a26.406 26.406 0 0 0 15.895-24.223 1.38 1.38 0 0 0-2.761 0 23.65 23.65 0 0 1-14.235 21.694zM128.58 47.404a1.38 1.38 0 0 0-1.38-1.38c-1.608 0-3.214.145-4.796.434a1.38 1.38 0 1 0 .498 2.714 23.874 23.874 0 0 1 4.298-.388 1.38 1.38 0 0 0 1.38-1.38zM116.913 48.1a26.368 26.368 0 0 0-16.14 24.328 1.38 1.38 0 0 0 2.762 0 23.611 23.611 0 0 1 14.454-21.787 1.38 1.38 0 0 0-1.076-2.54z"/>
            </g>
        </g>
    </g>
</svg>
