<?xml version="1.0" encoding="UTF-8" standalone="no"?>
<svg width="118px" height="118px" viewBox="0 0 118 118" version="1.1" xmlns="http://www.w3.org/2000/svg" xmlns:xlink="http://www.w3.org/1999/xlink">
    <!-- Generator: Sketch 3.7.2 (28276) - http://www.bohemiancoding.com/sketch -->
    <title>Group 2</title>
    <desc>Created with Sketch.</desc>
    <defs>
        <path d="M0,3.00560034 C0,1.34565311 1.34552518,0 3.00560034,0 L114.9944,0 C116.654347,0 118,1.34552518 118,3.00560034 L118,114.9944 C118,116.654347 116.654475,118 114.9944,118 L3.00560034,118 C1.34565311,118 0,116.654475 0,114.9944 L0,3.00560034 Z" id="path-1"></path>
        <mask id="mask-2" maskContentUnits="userSpaceOnUse" maskUnits="objectBoundingBox" x="0" y="0" width="118" height="118" fill="white">
            <use xlink:href="#path-1"></use>
        </mask>
    </defs>
    <g id="All-Sandbox" stroke="none" stroke-width="1" fill="none" fill-rule="evenodd">
        <g id="Empty-State---Peers" transform="translate(-661.000000, -261.000000)">
            <g id="Group-2" transform="translate(661.000000, 261.000000)">
                <use id="Shape" stroke="#E0E0E0" mask="url(#mask-2)" stroke-width="20" fill="#F7F7F7" xlink:href="#path-1"></use>
                <g id="ic_people_white_24px" transform="translate(24.000000, 24.000000)" fill="#B3B3B3">
                    <g id="Group">
                        <path d="M34.8800813,29.9634146 C43.041748,29.9634146 49.5809146,23.3750813 49.5809146,15.2134146 C49.5809146,7.05174797 43.041748,0.463414634 34.8800813,0.463414634 C26.7184146,0.463414634 20.1300813,7.05174797 20.1300813,15.2134146 C20.1300813,23.3750813 26.7184146,29.9634146 34.8800813,29.9634146 L34.8800813,29.9634146 Z M34.8800813,39.796748 C23.424248,39.796748 0.463414634,45.549248 0.463414634,57.0050813 L0.463414634,69.296748 L69.296748,69.296748 L69.296748,57.0050813 C69.296748,45.549248 46.3359146,39.796748 34.8800813,39.796748 L34.8800813,39.796748 Z" id="Shape"></path>
                    </g>
                </g>
            </g>
        </g>
    </g>
</svg>