<?xml version="1.0" encoding="UTF-8" standalone="no"?>
<svg width="160px" height="160px" viewBox="0 0 160 160" version="1.1" xmlns="http://www.w3.org/2000/svg" xmlns:xlink="http://www.w3.org/1999/xlink">
    <!-- Generator: Sketch 3.7.1 (28215) - http://www.bohemiancoding.com/sketch -->
    <title>sad_module</title>
    <desc>Created with Sketch.</desc>
    <defs>
        <path d="M0,2.99891244 C0,1.34265883 1.35151813,0 3.00134963,0 L156.108612,0 C157.766212,0 159.109962,1.33439638 159.109962,2.99891244 L159.109962,156.910597 C159.109962,158.566851 157.758444,159.90951 156.108612,159.90951 L3.00134963,159.90951 C1.34375,159.90951 0,158.575113 0,156.910597 L0,2.99891244 Z" id="path-1"></path>
        <mask id="mask-2" maskContentUnits="userSpaceOnUse" maskUnits="objectBoundingBox" x="0" y="0" width="159.109962" height="159.90951" fill="white">
            <use xlink:href="#path-1"></use>
        </mask>
    </defs>
    <g id="All-Sandbox" stroke="none" stroke-width="1" fill="none" fill-rule="evenodd">
        <g id="Empty-State---Module-Completed" transform="translate(-641.000000, -274.000000)">
            <g id="sad_module" transform="translate(641.000000, 274.000000)">
                <use id="Shape" stroke="#E0E0E0" mask="url(#mask-2)" stroke-width="20" fill="#F7F7F7" xlink:href="#path-1"></use>
                <g id="Booksad" transform="translate(52.000000, 89.000000)">
                    <g id="Page-1">
                        <g>
                            <g id="Artboard-1">
                                <g id="Booksad">
                                    <path d="M48.675,13.1320755 C52.1682012,13.1320755 55,10.1923602 55,6.56603774 C55,2.93971523 52.1682012,0 48.675,0 C45.1817987,0 42.35,2.93971523 42.35,6.56603774 C42.35,10.1923602 45.1817987,13.1320755 48.675,13.1320755 L48.675,13.1320755 Z" id="Oval-1" fill="#E0E0E0"></path>
                                    <ellipse id="Oval-1" fill="#E0E0E0" cx="6.325" cy="6.56603774" rx="6.325" ry="6.56603774"></ellipse>
                                    <path d="M18.15,29 C18.15,29 27.0777733,21.6132075 35.75,29" id="Path-4" stroke="#E0E0E0" stroke-width="5" stroke-linecap="round"></path>
                                </g>
                            </g>
                        </g>
                    </g>
                </g>
                <rect id="Rectangle-713" fill="#E0E0E0" x="4" y="4" width="152" height="55"></rect>
            </g>
        </g>
    </g>
</svg>