<svg xmlns="http://www.w3.org/2000/svg" width="27" height="16" viewBox="0 0 27 16">
    <g fill="none" fill-rule="evenodd">
        <path d="M-3-8h32v32H-3z"/>
        <path fill="#E1E1E1" fill-rule="nonzero" d="M19.187.854l1.493 1.492a1 1 0 0 1 0 1.414l-5.093 5.093a1 1 0 0 1-1.414 0l-3.92-3.92a.999.999 0 0 0-1.413.001L.373 13.412a1.002 1.002 0 0 0 0 1.415l.467.466a1 1 0 0 0 1.414 0L8.84 8.707a1 1 0 0 1 1.414 0l3.919 3.92c.39.389 1.023.39 1.415 0l6.984-6.974a1.002 1.002 0 0 1 1.415 0l1.493 1.493a.5.5 0 0 0 .853-.353V1a1 1 0 0 0-1-1H19.54a.5.5 0 0 0-.353.854z"/>
    </g>
</svg>
