<svg width="40" height="40" viewBox="0 0 40 40" fill="none" xmlns="http://www.w3.org/2000/svg">
<path d="M21.1719 0H18.8281C18.8281 5.17961 14.6329 9.45312 9.45312 9.45312V11.7969C14.6329 11.7969 18.8281 15.9921 18.8281 21.1719H21.1719C21.1719 15.9921 25.3671 11.7969 30.5469 11.7969V9.45312C25.3671 9.45312 21.1719 5.17961 21.1719 0Z" fill="#FFDA2D"/>
<path d="M30.5469 23.5156H28.2031C28.2031 27.3827 25.0391 30.5469 21.1719 30.5469V32.8906C25.0391 32.8906 28.2031 36.1327 28.2031 40H30.5469C30.5469 36.1327 33.7109 32.8906 37.5781 32.8906V30.5469C33.7109 30.5469 30.5469 27.3827 30.5469 23.5156Z" fill="#FFDA2D"/>
<path d="M9.45312 18.8281H7.10938C7.10938 21.4062 4.99992 23.5156 2.42188 23.5156V25.8594C4.99992 25.8594 7.10938 27.9687 7.10938 30.5469H9.45312C9.45312 27.9687 11.5626 25.8594 14.1406 25.8594V23.5156C11.5626 23.5156 9.45312 21.4062 9.45312 18.8281Z" fill="#FFDA2D"/>
<path d="M14.1406 23.5156V25.8594C11.5626 25.8594 9.45312 27.9687 9.45312 30.5469H8.28125V18.8281H9.45312C9.45312 21.4062 11.5626 23.5156 14.1406 23.5156Z" fill="#FDBF00"/>
<path d="M30.5469 9.45312V11.7969C25.3671 11.7969 21.1719 15.9921 21.1719 21.1719H20V0H21.1719C21.1719 5.17961 25.3671 9.45312 30.5469 9.45312Z" fill="#FDBF00"/>
<path d="M37.5781 30.5469V32.8906C33.7109 32.8906 30.5469 36.1327 30.5469 40H29.375V23.5156H30.5469C30.5469 27.3827 33.7109 30.5469 37.5781 30.5469Z" fill="#FDBF00"/>
</svg>
