<svg width="24" height="24" viewBox="0 0 24 24" fill="none" xmlns="http://www.w3.org/2000/svg">
<circle cx="12" cy="12" r="12" fill="#FFF4D0"/>
<g clip-path="url(#clip0)">
<path d="M18.352 10.2359L14.0333 9.83534L12.3178 5.85178C12.1976 5.57285 11.8022 5.57285 11.6821 5.85178L9.96656 9.83537L5.64784 10.2359C5.34545 10.2639 5.22323 10.6401 5.45138 10.8405L8.70987 13.703L7.75628 17.9342C7.68951 18.2304 8.00945 18.4628 8.27057 18.3078L11.9999 16.0934L15.7293 18.3078C15.9904 18.4628 16.3103 18.2304 16.2436 17.9342L15.29 13.703L18.5484 10.8405C18.7766 10.6401 18.6544 10.2639 18.352 10.2359Z" fill="#FFDC64"/>
<path d="M12.3177 5.85178C12.1976 5.57285 11.8022 5.57285 11.682 5.85178L9.96656 9.83537L5.64784 10.2359C5.34545 10.2639 5.22323 10.6401 5.45138 10.8405L8.70987 13.703L7.75627 17.9342C7.6895 18.2304 8.00945 18.4628 8.27057 18.3078L9.10294 17.8136C9.21815 13.0713 11.4215 9.73185 13.166 7.82146L12.3177 5.85178Z" fill="#FFC850"/>
</g>
<defs>
<clipPath id="clip0">
<rect x="5.33325" y="5.33329" width="13.3333" height="13.3333" fill="white"/>
</clipPath>
</defs>
</svg>
