<svg width="24" height="24" viewBox="0 0 24 24" fill="none" xmlns="http://www.w3.org/2000/svg">
<circle cx="12" cy="12" r="12" fill="#D1FDEA"/>
<path fill-rule="evenodd" clip-rule="evenodd" d="M8.75532 14.0887C8.91772 14.0887 9.02528 14.1963 9.02528 14.3587C9.02528 14.5211 8.91772 14.6287 8.75532 14.6287H4.08467C3.92227 14.6287 3.81471 14.5211 3.81471 14.3587C3.81471 14.1963 3.92227 14.0887 4.08467 14.0887H8.75532ZM2.51996 11.8216H7.19061C7.35301 11.8216 7.46057 11.9291 7.46057 12.0915C7.46057 12.2449 7.36463 12.3494 7.21716 12.3605L7.19061 12.3615H2.51996C2.35756 12.3615 2.25 12.2539 2.25 12.0915C2.25 11.9382 2.34594 11.8337 2.49341 11.8226L2.51996 11.8216H7.19061H2.51996ZM4.08467 9.55443H8.75532C8.91772 9.55443 9.02528 9.66199 9.02528 9.82439C9.02528 9.97777 8.92934 10.0822 8.78187 10.0934L8.75532 10.0944H4.08467C3.92333 10.0944 3.81471 9.98574 3.81471 9.82439C3.81471 9.67101 3.91066 9.56655 4.05812 9.55542L4.08467 9.55443H8.75532H4.08467ZM18.7676 9.13824C19.2385 10.0581 19.5 11.0998 19.5 12.1991C19.5 15.9521 16.4491 19.0029 12.6961 19.0008C10.8876 19.0008 9.18652 18.2995 7.89047 17.0035C7.78291 16.8959 7.78291 16.7335 7.89047 16.626C7.99803 16.5184 8.16043 16.5184 8.26799 16.626C9.45529 17.8145 11.0213 18.462 12.6949 18.462C16.1507 18.462 18.9578 15.6549 18.9578 12.1991C18.9578 11.2563 18.7462 10.3591 18.3671 9.55521L18.7676 9.13824ZM17.9397 10.0003C18.2313 10.6834 18.3927 11.4354 18.3927 12.2253C18.3927 15.3574 15.8556 17.8946 12.7235 17.8946C11.5636 17.8946 10.4563 17.5434 9.51143 16.8959C9.37645 16.8158 9.34903 16.6534 9.43023 16.5184C9.51142 16.4108 9.67382 16.3834 9.83516 16.4625C10.6714 17.0562 11.6711 17.3536 12.7235 17.3536C15.5581 17.3536 17.8528 15.0589 17.8528 12.2243C17.8528 11.5919 17.7386 10.9864 17.5297 10.4273L17.9397 10.0003ZM17.8692 7.64237C18.1099 7.60945 18.3446 7.73451 18.4507 7.95247C18.5575 8.17117 18.5114 8.43301 18.3373 8.60197C16.3517 10.5921 14.9165 12.2063 12.9074 14.2192C12.7019 14.4276 12.3705 14.443 12.1467 14.2543L9.71261 12.1946C9.59778 12.0988 9.5261 11.9613 9.51367 11.8121C9.5005 11.6629 9.54731 11.5152 9.64386 11.4011C9.74042 11.2862 9.87864 11.2153 10.0271 11.2028C10.1763 11.1904 10.3241 11.2379 10.4382 11.3345L12.4744 13.0548C14.2633 11.2415 15.6668 9.69099 17.5415 7.81205C17.6285 7.72062 17.7441 7.66065 17.8691 7.64236L17.8692 7.64237ZM12.7235 6.5561C14.1538 6.5561 15.4601 7.08524 16.4573 7.95855L16.0844 8.34808C15.1845 7.56729 14.0096 7.09495 12.7235 7.09495C11.6435 7.09495 10.59 7.41978 9.72637 8.06726C9.5914 8.14846 9.43005 8.12104 9.34885 8.01347C9.26765 7.90592 9.29507 7.71716 9.40263 7.63596C10.375 6.93362 11.536 6.5561 12.7235 6.5561ZM13.9384 3.75C14.1008 3.75 14.2084 3.85756 14.2084 4.01996C14.2084 4.17334 14.1124 4.27781 13.965 4.28894L13.9384 4.28993H12.9661V5.42356C14.553 5.47624 15.9849 6.07335 17.1083 7.03645L17.1781 7.09712L17.2311 7.15015L16.8545 7.54376C15.7369 6.56109 14.2788 5.96241 12.6949 5.96241C10.9677 5.96241 9.3479 6.66475 8.13306 7.93336C8.02551 8.04092 7.86311 8.04092 7.75555 7.93336C7.64798 7.82581 7.64798 7.66341 7.75555 7.55584C8.97533 6.25749 10.5843 5.53145 12.3291 5.42863L12.4262 5.42356V4.28993H11.4813C11.3189 4.28993 11.2114 4.18236 11.2114 4.01996C11.2114 3.86659 11.3073 3.76212 11.4548 3.75099L11.4813 3.75H13.9384Z" fill="#21AF73"/>
</svg>
