<?xml version="1.0" encoding="UTF-8" standalone="no"?>
<svg width="20px" height="21px" viewBox="0 0 20 21" version="1.1" xmlns="http://www.w3.org/2000/svg" xmlns:xlink="http://www.w3.org/1999/xlink">
    <!-- Generator: sketchtool 41 (35326) - http://www.bohemiancoding.com/sketch -->
    <title>09BB5788-9CEB-4250-AA3C-FEEB5F7F7A27</title>
    <desc>Created with sketchtool.</desc>
    <defs></defs>
    <g id="Page-2" stroke="none" stroke-width="1" fill="none" fill-rule="evenodd">
        <g id="Date-selection-1280" transform="translate(-1101.000000, -166.000000)">
            <g id="Group-4" transform="translate(1101.000000, 166.000000)">
                <path d="M11.3043478,0 L11.3043478,1.73913043 L4.34782609,1.73913043 L4.34782609,0 L2.60869565,0 L2.60869565,1.73913043 L1.73913043,1.73913043 C0.773913043,1.73913043 0.00869565217,2.52173913 0.00869565217,3.47826087 L0,15.6521739 C0,16.6086957 0.773913043,17.3913043 1.73913043,17.3913043 L13.9130435,17.3913043 C14.8695652,17.3913043 15.6521739,16.6086957 15.6521739,15.6521739 L15.6521739,3.47826087 C15.6521739,2.52173913 14.8695652,1.73913043 13.9130435,1.73913043 L13.0434783,1.73913043 L13.0434783,0 L11.3043478,0 L11.3043478,0 Z M15.637154,17.3879807 L8.08664011,17.3879807 C8.08664011,17.3879807 7.90526151,16.8229889 7.87825875,16.4958921 C7.85125598,16.1687952 7.81616211,15.6521739 7.81616211,15.6521739 L1.73913043,15.6521739 L1.73913043,6.08695652 L13.9130435,6.08695652 L13.9130435,8.78626133 C13.9130435,8.78626133 14.5563607,8.6984651 14.7311269,8.6984651 C14.9961433,8.6984651 15.637154,8.78626133 15.637154,8.78626133 L15.637154,17.3879807 Z" id="Shape" fill="#4A90E2"></path>
                <g id="Group-3" transform="translate(9.565217, 10.434783)">
                    <ellipse id="Oval-3" fill="#4A90E2" cx="5.2173913" cy="5.2173913" rx="5.2173913" ry="5.2173913"></ellipse>
                    <polyline id="Path-2" stroke="#FFFFFF" points="5.10578051 2.73913043 5.10578051 5.67691394 8 5.67691394"></polyline>
                </g>
            </g>
        </g>
    </g>
</svg>