<?xml version="1.0" encoding="UTF-8" standalone="no"?>
<svg width="64px" height="64px" viewBox="0 0 64 64" version="1.1" xmlns="http://www.w3.org/2000/svg" xmlns:xlink="http://www.w3.org/1999/xlink">
    <!-- Generator: Sketch 43.2 (39069) - http://www.bohemiancoding.com/sketch -->
    <title>twitter (1)</title>
    <desc>Created with Sketch.</desc>
    <defs></defs>
    <g id="Page-4" stroke="none" stroke-width="1" fill="none" fill-rule="evenodd">
        <g id="twitter-(1)" fill-rule="nonzero">
            <circle id="Oval" fill="#1DA1F2" cx="31.772885" cy="31.7723186" r="31.7723186"></circle>
            <path d="M51.2345487,22.8338407 C49.8729912,23.4375929 48.408354,23.8459469 46.872354,24.0283186 C48.4406372,23.088708 49.644177,21.6019823 50.2122478,19.8275398 C48.7447788,20.6980531 47.1187257,21.3295575 45.3895929,21.6699469 C44.0042478,20.1945487 42.0304425,19.2724956 39.8448142,19.2724956 C35.6513982,19.2724956 32.2503363,22.6735575 32.2503363,26.8669735 C32.2503363,27.4622301 32.3177345,28.0416283 32.448,28.5978053 C26.136354,28.2812035 20.5400354,25.2579115 16.7940531,20.6618053 C16.1404602,21.7832212 15.7655221,23.088708 15.7655221,24.4802832 C15.7655221,27.1144779 17.1072566,29.44 19.1439292,30.8015575 C17.8996106,30.7624779 16.7277876,30.4209558 15.704354,29.8506195 C15.7037876,29.8829027 15.7037876,29.9151858 15.7037876,29.9469027 C15.7037876,33.6266195 18.3226903,36.6957876 21.7962478,37.3929912 C21.159646,37.5674336 20.4873628,37.6597522 19.795823,37.6597522 C19.3053451,37.6597522 18.8301593,37.6127434 18.3668673,37.5243894 C19.3330973,40.540885 22.1372035,42.736708 25.4612389,42.7984425 C22.8615929,44.8356814 19.5873982,46.0494159 16.0283186,46.0494159 C15.4166372,46.0494159 14.8106195,46.0137345 14.2176283,45.9429381 C17.5767788,48.0985487 21.5696991,49.3553274 25.8582655,49.3553274 C39.8272566,49.3553274 47.4664779,37.7832212 47.4664779,27.7465487 C47.4664779,27.4174867 47.459115,27.0895575 47.4443894,26.7644602 C48.9294159,25.6940177 50.2167788,24.3568142 51.2345487,22.8338407 L51.2345487,22.8338407 Z" id="Shape" fill="#F1F2F2"></path>
        </g>
    </g>
</svg>