<svg width="48" height="48" viewBox="0 0 48 48" fill="none" xmlns="http://www.w3.org/2000/svg">
<g filter="url(#filter0_d)">
<g clip-path="url(#clip0)">
<path d="M24.0008 39.9996C35.0464 39.9996 44.0006 31.0454 44.0006 19.9998C44.0006 8.95423 35.0464 0 24.0008 0C12.9552 0 4.00098 8.95423 4.00098 19.9998C4.00098 31.0454 12.9552 39.9996 24.0008 39.9996Z" fill="#4D8AF0"/>
<path d="M36.2507 14.3732C35.3937 14.7533 34.4717 15.0103 33.5049 15.1251C34.4921 14.5336 35.2496 13.5978 35.6072 12.4808C34.6835 13.0288 33.6599 13.4263 32.5715 13.6406C31.6995 12.7118 30.457 12.1314 29.0812 12.1314C26.4416 12.1314 24.3007 14.2723 24.3007 16.912C24.3007 17.2867 24.3431 17.6514 24.4251 18.0015C20.4521 17.8022 16.9294 15.8991 14.5714 13.006C14.16 13.7119 13.9239 14.5336 13.9239 15.4096C13.9239 17.0678 14.7685 18.5316 16.0506 19.3887C15.2673 19.3641 14.5297 19.1491 13.8854 18.7901C13.8851 18.8104 13.8851 18.8307 13.8851 18.8507C13.8851 21.167 15.5336 23.0989 17.7201 23.5378C17.3194 23.6476 16.8962 23.7057 16.4609 23.7057C16.1522 23.7057 15.853 23.6761 15.5614 23.6205C16.1696 25.5193 17.9347 26.9015 20.0271 26.9404C18.3907 28.2228 16.3297 28.9868 14.0894 28.9868C13.7043 28.9868 13.3229 28.9643 12.9496 28.9198C15.0641 30.2767 17.5775 31.0678 20.2771 31.0678C29.0702 31.0678 33.8788 23.7834 33.8788 17.4656C33.8788 17.2585 33.8742 17.0521 33.8649 16.8474C34.7997 16.1736 35.6101 15.3319 36.2507 14.3732Z" fill="white"/>
</g>
</g>
<defs>
<filter id="filter0_d" x="0" y="0" width="48" height="48" filterUnits="userSpaceOnUse" color-interpolation-filters="sRGB">
<feFlood flood-opacity="0" result="BackgroundImageFix"/>
<feColorMatrix in="SourceAlpha" type="matrix" values="0 0 0 0 0 0 0 0 0 0 0 0 0 0 0 0 0 0 127 0"/>
<feOffset dy="4"/>
<feGaussianBlur stdDeviation="2"/>
<feColorMatrix type="matrix" values="0 0 0 0 0.588235 0 0 0 0 0.654902 0 0 0 0 0.752941 0 0 0 0.5 0"/>
<feBlend mode="normal" in2="BackgroundImageFix" result="effect1_dropShadow"/>
<feBlend mode="normal" in="SourceGraphic" in2="effect1_dropShadow" result="shape"/>
</filter>
<clipPath id="clip0">
<rect x="4" width="40" height="40" fill="white"/>
</clipPath>
</defs>
</svg>
