<svg xmlns="http://www.w3.org/2000/svg" width="112" height="30" viewBox="0 0 112 30">
    <g fill="#FFF" fill-rule="evenodd">
        <path d="M16.286 6.857V23.5h-5.473v-2.067C9.7 23.066 8.093 24 5.8 24 2.13 24 0 21.731 0 17.563V6.857h5.473v9.505c0 2.201.851 3.102 2.555 3.102 1.803 0 2.785-1.067 2.785-3.268V6.857h5.473zM30.329 15.39c0-1.13-.129-1.939-.383-2.52-.478-1.067-1.434-1.617-2.74-1.617-2.008 0-3.09 1.293-3.09 3.685v.872c0 2.392 1.082 3.685 3.09 3.685 1.306 0 2.262-.549 2.74-1.616.254-.582.383-1.357.383-2.488m5.671 0c0 1.874-.318 3.393-.86 4.654-1.116 2.424-3.25 3.88-6.182 3.88-2.07 0-3.664-.713-4.78-2.232V30h-5.32V7.342h5.193v1.94c1.147-1.649 2.773-2.425 4.907-2.425 2.932 0 5.066 1.455 6.181 3.911.543 1.26.861 2.78.861 4.623M63.429 7.325h5.167V8.83c.809-1.404 1.681-1.972 2.925-1.972 1.868 0 3.05 1.303 3.05 3.242 0 1.871-1.214 3.24-2.987 3.24-1.09 0-2.024-.6-2.428-1.503-.436.2-.53.468-.53 1.638V24H63.43V7.325zM86.083 18.676c.224-.455.288-.91.288-1.786v-.227h-2.048c-1.535 0-2.783.162-3.135 1.005a1.57 1.57 0 0 0-.16.715c0 .293.032.52.16.78.32.714 1.152.973 2.112.973 1.44 0 2.367-.52 2.783-1.46m5.631-4.448v9.318h-5.343V21.63C85.315 23.124 83.683 24 81.09 24c-2.526 0-4.414-.909-5.214-2.727-.32-.65-.448-1.396-.448-2.305 0-.877.127-1.591.384-2.208 1.152-2.532 4.255-3.117 8.158-3.117h2.4v-.26c0-.974-.064-1.33-.256-1.754-.32-.713-1.056-1.07-2.208-1.07-1.247 0-1.952.324-2.271 1.038-.128.325-.16.552-.192.974h-5.44c.033-.876.192-1.623.48-2.272 1.057-2.37 3.776-3.442 7.36-3.442 3.87 0 6.143 1.039 7.198 3.376.448 1.072.672 2.403.672 3.995M106.171 15.064c0-2.378-1.083-3.664-3.09-3.664-1.307 0-2.263.547-2.742 1.607-.254.579-.38 1.382-.38 2.508 0 1.156.126 1.928.38 2.539.48 1.06 1.435 1.607 2.741 1.607 2.008 0 3.091-1.286 3.091-3.665v-.932zM111.43.857V23.55h-5.194v-1.929c-1.147 1.607-2.74 2.379-4.908 2.379-2.931 0-5.066-1.414-6.181-3.857-.542-1.254-.86-2.765-.86-4.628 0-1.833.318-3.343.86-4.597 1.084-2.443 3.25-3.89 6.181-3.89 2.072 0 3.633.707 4.78 2.218V.857h5.322zM51.933 11.266v4.228h3.561l-.133.552c-.444 1.836-2.654 3.07-4.44 3.07-2.485 0-5.701-1.19-5.701-6.853 0-4.689 2.071-6.93 5.237-6.93 1.733 0 3.067.407 3.87 1.605.334.527.643 1.247.676 1.847h6.323s.15-2.91-2.234-5.449c-.038-.04-.075-.075-.113-.113C57.06 1.153 54.167 0 50.59 0c-7.3 0-12.018 4.826-12.018 12.296C38.571 20.935 44.546 24 49.663 24c2.871 0 5.459-.852 7.03-2.528l.073 2.128h4.948V11.266h-9.78z"/>
    </g>
</svg>
