<svg xmlns="http://www.w3.org/2000/svg" width="120" height="33" viewBox="0 0 120 33">
    <g fill="#E92E3D" fill-rule="evenodd">
        <path d="M17.538 7.385v17.922h-5.893V23.08c-1.2 1.76-2.929 2.766-5.4 2.766C2.295 25.846 0 23.403 0 18.914V7.384h5.894V17.62c0 2.371.917 3.341 2.752 3.341 1.941 0 2.999-1.149 2.999-3.52V7.385h5.893zM32.662 16.575c0-1.219-.139-2.09-.413-2.716-.514-1.148-1.544-1.74-2.95-1.74-2.163 0-3.328 1.392-3.328 3.968v.94c0 2.575 1.165 3.968 3.327 3.968 1.407 0 2.437-.591 2.951-1.74.274-.627.413-1.462.413-2.68m6.107 0c0 2.018-.343 3.654-.927 5.012-1.2 2.61-3.5 4.177-6.656 4.177-2.23 0-3.947-.766-5.147-2.402v8.946h-5.731v-24.4H25.9v2.087c1.235-1.775 2.986-2.61 5.285-2.61 3.157 0 5.456 1.566 6.656 4.212.584 1.357.927 2.993.927 4.978M68.308 7.889h5.564v1.62c.872-1.512 1.811-2.124 3.15-2.124 2.012 0 3.286 1.403 3.286 3.49 0 2.016-1.308 3.49-3.218 3.49-1.173 0-2.179-.647-2.614-1.618-.47.216-.57.504-.57 1.763v11.336h-5.598V7.89zM92.705 20.112c.241-.49.31-.98.31-1.923v-.245h-2.206c-1.653 0-2.997.175-3.376 1.084-.103.21-.173.455-.173.77 0 .314.035.559.173.838.345.77 1.24 1.05 2.274 1.05 1.55 0 2.55-.56 2.998-1.574m6.064-4.79v10.035h-5.754v-2.063c-1.137 1.608-2.895 2.552-5.685 2.552-2.722 0-4.755-.979-5.617-2.937-.345-.7-.482-1.503-.482-2.482 0-.944.137-1.714.414-2.378 1.24-2.727 4.582-3.356 8.785-3.356h2.585v-.28c0-1.05-.069-1.434-.276-1.889-.344-.769-1.137-1.154-2.378-1.154-1.342 0-2.101.35-2.446 1.12-.137.35-.172.594-.206 1.048H81.85c.035-.944.207-1.748.517-2.447 1.137-2.552 4.066-3.706 7.925-3.706 4.169 0 6.616 1.118 7.752 3.636.483 1.154.724 2.587.724 4.301M114.338 16.223c0-2.562-1.167-3.946-3.328-3.946-1.408 0-2.436.589-2.952 1.73-.274.624-.41 1.49-.41 2.701 0 1.246.136 2.077.41 2.735.516 1.141 1.544 1.73 2.952 1.73 2.161 0 3.328-1.384 3.328-3.946v-1.004zM120 .923v24.439h-5.593v-2.077c-1.236 1.73-2.952 2.561-5.285 2.561-3.157 0-5.456-1.523-6.657-4.153-.584-1.35-.927-2.978-.927-4.985 0-1.974.343-3.6.927-4.95 1.167-2.631 3.5-4.189 6.657-4.189 2.23 0 3.912.761 5.147 2.389V.923H120zM55.928 12.132v4.554h3.835l-.144.594c-.478 1.978-2.858 3.305-4.782 3.305-2.675 0-6.139-1.28-6.139-7.378 0-5.05 2.231-7.464 5.64-7.464 1.867 0 3.303.438 4.168 1.728.36.568.693 1.344.728 1.99h6.809s.161-3.135-2.406-5.868c-.04-.043-.08-.081-.121-.122C61.447 1.24 58.334 0 54.48 0c-7.862 0-12.943 5.198-12.943 13.242 0 9.303 6.435 12.604 11.945 12.604 3.092 0 5.88-.917 7.571-2.722l.079 2.291h5.329V12.132H55.928z"/>
    </g>
</svg>
