<svg width="48" height="48" viewBox="0 0 48 48" fill="none" xmlns="http://www.w3.org/2000/svg">
<g filter="url(#filter0_d)">
<circle cx="24" cy="20" r="20" fill="white"/>
<path d="M24 0C12.956 0 4 8.95599 4 20C4 31.044 12.956 40 24 40C35.044 40 44 31.044 44 20C44 8.95599 35.044 0 24 0ZM24.4239 31.6446C24.4236 31.6446 24.4242 31.6446 24.4239 31.6446H24.419C22.4155 31.6437 20.4468 31.1414 18.6985 30.188L12.353 31.8521L14.0513 25.6509C13.0036 23.8364 12.4525 21.7776 12.4534 19.6686C12.4561 13.0707 17.826 7.70294 24.4239 7.70294C27.6258 7.70416 30.6315 8.9505 32.8913 11.2122C35.1514 13.4741 36.3953 16.4807 36.3941 19.678C36.3914 26.2762 31.0209 31.6446 24.4239 31.6446Z" fill="#4D8AF0"/>
<path d="M24.4279 9.72412C18.9399 9.72412 14.4767 14.1855 14.4742 19.6695C14.4736 21.5488 14.9998 23.3789 15.9955 24.9625L16.2321 25.3387L15.2268 29.0091L18.9924 28.0215L19.3558 28.237C20.8832 29.1434 22.6343 29.6228 24.4196 29.6234H24.4236C29.9073 29.6234 34.3705 25.1617 34.3729 19.6774C34.3738 17.0197 33.3399 14.5209 31.4616 12.641C29.5832 10.7611 27.085 9.72504 24.4279 9.72412ZM30.2799 23.9456C30.0306 24.6439 28.8358 25.2814 28.2612 25.3674C27.7457 25.4443 27.0939 25.4764 26.3773 25.249C25.9428 25.1111 25.3858 24.9271 24.672 24.6191C21.6718 23.324 19.7123 20.304 19.5627 20.1044C19.4132 19.9048 18.3414 18.483 18.3414 17.0111C18.3414 15.5396 19.1141 14.816 19.3882 14.5169C19.6625 14.2175 19.9866 14.1428 20.1859 14.1428C20.3852 14.1428 20.5848 14.1446 20.759 14.1531C20.9428 14.1623 21.1893 14.0833 21.4319 14.6664C21.6813 15.2652 22.2794 16.7368 22.3542 16.8863C22.429 17.0361 22.4787 17.2107 22.3792 17.4103C22.2794 17.6099 21.948 18.0405 21.6315 18.4329C21.4988 18.5974 21.3257 18.7439 21.5003 19.0433C21.6746 19.3423 22.2751 20.3217 23.1641 21.1145C24.3067 22.1332 25.2704 22.4487 25.5695 22.5986C25.8683 22.7481 26.0428 22.7231 26.2174 22.5238C26.3917 22.3242 26.9651 21.6507 27.1644 21.3513C27.3637 21.0519 27.5632 21.102 27.8373 21.2018C28.1116 21.3013 29.582 22.0248 29.881 22.1744C30.1801 22.3242 30.3794 22.399 30.4542 22.5238C30.5292 22.6486 30.5292 23.2471 30.2799 23.9456Z" fill="#4D8AF0"/>
</g>
<defs>
<filter id="filter0_d" x="0" y="0" width="48" height="48" filterUnits="userSpaceOnUse" color-interpolation-filters="sRGB">
<feFlood flood-opacity="0" result="BackgroundImageFix"/>
<feColorMatrix in="SourceAlpha" type="matrix" values="0 0 0 0 0 0 0 0 0 0 0 0 0 0 0 0 0 0 127 0"/>
<feOffset dy="4"/>
<feGaussianBlur stdDeviation="2"/>
<feColorMatrix type="matrix" values="0 0 0 0 0.588235 0 0 0 0 0.654902 0 0 0 0 0.752941 0 0 0 0.5 0"/>
<feBlend mode="normal" in2="BackgroundImageFix" result="effect1_dropShadow"/>
<feBlend mode="normal" in="SourceGraphic" in2="effect1_dropShadow" result="shape"/>
</filter>
</defs>
</svg>
